<svg width="1920" height="389" viewBox="0 0 1920 389" fill="none" xmlns="http://www.w3.org/2000/svg">
<path d="M-851 0H2702V388.292H-851V0Z" fill="#E0DCCF"/>
<path d="M-838.311 77.4046C-838.311 71.7982 -833.766 67.2532 -828.159 67.2532H-467.784C-462.177 67.2532 -457.632 71.7982 -457.632 77.4046V310.887C-457.632 316.494 -462.177 321.039 -467.784 321.039H-828.159C-833.766 321.039 -838.311 316.494 -838.311 310.887V77.4046Z" fill="black"/>
<path d="M-444.943 77.4046C-444.943 71.7982 -440.398 67.2532 -434.791 67.2532H-74.4158C-68.8093 67.2532 -64.2643 71.7982 -64.2643 77.4046V310.887C-64.2643 316.494 -68.8093 321.039 -74.4158 321.039H-434.791C-440.398 321.039 -444.943 316.494 -444.943 310.887V77.4046Z" fill="black"/>
<path d="M-51.575 77.4046C-51.575 71.7982 -47.0301 67.2532 -41.4236 67.2532H318.952C324.559 67.2532 329.104 71.7982 329.104 77.4046V310.887C329.104 316.494 324.559 321.039 318.952 321.039H-41.4236C-47.0301 321.039 -51.575 316.494 -51.575 310.887V77.4046Z" fill="black"/>
<path d="M341.793 77.4046C341.793 71.7982 346.338 67.2532 351.944 67.2532H712.32C717.926 67.2532 722.471 71.7982 722.471 77.4046V310.887C722.471 316.494 717.926 321.039 712.32 321.039H351.944C346.338 321.039 341.793 316.494 341.793 310.887V77.4046Z" fill="black"/>
<path d="M735.161 77.4046C735.161 71.7982 739.706 67.2532 745.312 67.2532H1105.69C1111.29 67.2532 1115.84 71.7982 1115.84 77.4046V310.887C1115.84 316.494 1111.29 321.039 1105.69 321.039H745.312C739.706 321.039 735.161 316.494 735.161 310.887V77.4046Z" fill="black"/>
<path d="M1128.53 77.4046C1128.53 71.7982 1133.07 67.2532 1138.68 67.2532H1499.06C1504.66 67.2532 1509.21 71.7982 1509.21 77.4046V310.887C1509.21 316.494 1504.66 321.039 1499.06 321.039H1138.68C1133.07 321.039 1128.53 316.494 1128.53 310.887V77.4046Z" fill="black"/>
<path d="M1521.9 77.4046C1521.9 71.7982 1526.44 67.2532 1532.05 67.2532H1892.42C1898.03 67.2532 1902.57 71.7982 1902.57 77.4046V310.887C1902.57 316.494 1898.03 321.039 1892.42 321.039H1532.05C1526.44 321.039 1521.9 316.494 1521.9 310.887V77.4046Z" fill="black"/>
<path d="M1915.26 77.4046C1915.26 71.7982 1919.81 67.2532 1925.42 67.2532H2285.79C2291.4 67.2532 2295.94 71.7982 2295.94 77.4046V310.887C2295.94 316.494 2291.4 321.039 2285.79 321.039H1925.42C1919.81 321.039 1915.26 316.494 1915.26 310.887V77.4046Z" fill="black"/>
<path d="M2308.63 77.4046C2308.63 71.7982 2313.18 67.2532 2318.78 67.2532H2679.16C2684.77 67.2532 2689.31 71.7982 2689.31 77.4046V310.887C2689.31 316.494 2684.77 321.039 2679.16 321.039H2318.78C2313.18 321.039 2308.63 316.494 2308.63 310.887V77.4046Z" fill="black"/>
<path d="M-838.311 25.3786C-838.311 18.3705 -832.63 12.6893 -825.621 12.6893H-819.277C-812.269 12.6893 -806.588 18.3705 -806.588 25.3786V41.8746C-806.588 48.8827 -812.269 54.5639 -819.277 54.5639H-825.621C-832.63 54.5639 -838.311 48.8827 -838.311 41.8746V25.3786Z" fill="black"/>
<path d="M-781.209 25.3786C-781.209 18.3705 -775.528 12.6893 -768.52 12.6893H-762.175C-755.167 12.6893 -749.486 18.3705 -749.486 25.3786V41.8746C-749.486 48.8827 -755.167 54.5639 -762.175 54.5639H-768.52C-775.528 54.5639 -781.209 48.8827 -781.209 41.8746V25.3786Z" fill="black"/>
<path d="M-724.107 25.3786C-724.107 18.3705 -718.426 12.6893 -711.418 12.6893H-705.073C-698.065 12.6893 -692.384 18.3705 -692.384 25.3786V41.8746C-692.384 48.8827 -698.065 54.5639 -705.073 54.5639H-711.418C-718.426 54.5639 -724.107 48.8827 -724.107 41.8746V25.3786Z" fill="black"/>
<path d="M-667.005 25.3786C-667.005 18.3705 -661.324 12.6893 -654.316 12.6893H-647.971C-640.963 12.6893 -635.282 18.3705 -635.282 25.3786V41.8746C-635.282 48.8827 -640.963 54.5639 -647.971 54.5639H-654.316C-661.324 54.5639 -667.005 48.8827 -667.005 41.8746V25.3786Z" fill="black"/>
<path d="M-609.904 25.3786C-609.904 18.3705 -604.222 12.6893 -597.214 12.6893H-590.87C-583.862 12.6893 -578.18 18.3705 -578.18 25.3786V41.8746C-578.18 48.8827 -583.862 54.5639 -590.87 54.5639H-597.214C-604.222 54.5639 -609.904 48.8827 -609.904 41.8746V25.3786Z" fill="black"/>
<path d="M-552.802 25.3786C-552.802 18.3705 -547.121 12.6893 -540.113 12.6893H-533.768C-526.76 12.6893 -521.079 18.3705 -521.079 25.3786V41.8746C-521.079 48.8827 -526.76 54.5639 -533.768 54.5639H-540.113C-547.121 54.5639 -552.802 48.8827 -552.802 41.8746V25.3786Z" fill="black"/>
<path d="M-495.7 25.3786C-495.7 18.3705 -490.019 12.6893 -483.011 12.6893H-476.666C-469.658 12.6893 -463.977 18.3705 -463.977 25.3786V41.8746C-463.977 48.8827 -469.658 54.5639 -476.666 54.5639H-483.011C-490.019 54.5639 -495.7 48.8827 -495.7 41.8746V25.3786Z" fill="black"/>
<path d="M-438.598 25.3786C-438.598 18.3705 -432.917 12.6893 -425.909 12.6893H-419.564C-412.556 12.6893 -406.875 18.3705 -406.875 25.3786V41.8746C-406.875 48.8827 -412.556 54.5639 -419.564 54.5639H-425.909C-432.917 54.5639 -438.598 48.8827 -438.598 41.8746V25.3786Z" fill="black"/>
<path d="M-381.496 25.3786C-381.496 18.3705 -375.815 12.6893 -368.807 12.6893H-362.463C-355.454 12.6893 -349.773 18.3705 -349.773 25.3786V41.8746C-349.773 48.8827 -355.454 54.5639 -362.463 54.5639H-368.807C-375.815 54.5639 -381.496 48.8827 -381.496 41.8746V25.3786Z" fill="black"/>
<path d="M-324.395 25.3786C-324.395 18.3705 -318.714 12.6893 -311.705 12.6893H-305.361C-298.353 12.6893 -292.671 18.3705 -292.671 25.3786V41.8746C-292.671 48.8827 -298.353 54.5639 -305.361 54.5639H-311.705C-318.714 54.5639 -324.395 48.8827 -324.395 41.8746V25.3786Z" fill="black"/>
<path d="M-267.293 25.3786C-267.293 18.3705 -261.612 12.6893 -254.604 12.6893H-248.259C-241.251 12.6893 -235.57 18.3705 -235.57 25.3786V41.8746C-235.57 48.8827 -241.251 54.5639 -248.259 54.5639H-254.604C-261.612 54.5639 -267.293 48.8827 -267.293 41.8746V25.3786Z" fill="black"/>
<path d="M-210.191 25.3786C-210.191 18.3705 -204.51 12.6893 -197.502 12.6893H-191.157C-184.149 12.6893 -178.468 18.3705 -178.468 25.3786V41.8746C-178.468 48.8827 -184.149 54.5639 -191.157 54.5639H-197.502C-204.51 54.5639 -210.191 48.8827 -210.191 41.8746V25.3786Z" fill="black"/>
<path d="M-153.089 25.3786C-153.089 18.3705 -147.408 12.6893 -140.4 12.6893H-134.055C-127.047 12.6893 -121.366 18.3705 -121.366 25.3786V41.8746C-121.366 48.8827 -127.047 54.5639 -134.055 54.5639H-140.4C-147.408 54.5639 -153.089 48.8827 -153.089 41.8746V25.3786Z" fill="black"/>
<path d="M-95.9875 25.3786C-95.9875 18.3705 -90.3063 12.6893 -83.2982 12.6893H-76.9536C-69.9455 12.6893 -64.2643 18.3705 -64.2643 25.3786V41.8746C-64.2643 48.8827 -69.9455 54.5639 -76.9536 54.5639H-83.2982C-90.3063 54.5639 -95.9875 48.8827 -95.9875 41.8746V25.3786Z" fill="black"/>
<path d="M-38.8857 25.3786C-38.8857 18.3705 -33.2045 12.6893 -26.1965 12.6893H-19.8518C-12.8437 12.6893 -7.16254 18.3705 -7.16254 25.3786V41.8746C-7.16254 48.8827 -12.8437 54.5639 -19.8518 54.5639H-26.1965C-33.2045 54.5639 -38.8857 48.8827 -38.8857 41.8746V25.3786Z" fill="black"/>
<path d="M18.2161 25.3786C18.2161 18.3705 23.8972 12.6893 30.9053 12.6893H37.25C44.2581 12.6893 49.9393 18.3705 49.9393 25.3786V41.8746C49.9393 48.8827 44.2581 54.5639 37.25 54.5639H30.9053C23.8972 54.5639 18.2161 48.8827 18.2161 41.8746V25.3786Z" fill="black"/>
<path d="M75.3178 25.3786C75.3178 18.3705 80.999 12.6893 88.0071 12.6893H94.3517C101.36 12.6893 107.041 18.3705 107.041 25.3786V41.8746C107.041 48.8827 101.36 54.5639 94.3517 54.5639H88.0071C80.999 54.5639 75.3178 48.8827 75.3178 41.8746V25.3786Z" fill="black"/>
<path d="M132.42 25.3786C132.42 18.3705 138.101 12.6893 145.109 12.6893H151.454C158.462 12.6893 164.143 18.3705 164.143 25.3786V41.8746C164.143 48.8827 158.462 54.5639 151.454 54.5639H145.109C138.101 54.5639 132.42 48.8827 132.42 41.8746V25.3786Z" fill="black"/>
<path d="M189.521 25.3786C189.521 18.3705 195.203 12.6893 202.211 12.6893H208.555C215.563 12.6893 221.245 18.3705 221.245 25.3786V41.8746C221.245 48.8827 215.563 54.5639 208.555 54.5639H202.211C195.203 54.5639 189.521 48.8827 189.521 41.8746V25.3786Z" fill="black"/>
<path d="M246.623 25.3786C246.623 18.3705 252.304 12.6893 259.312 12.6893H265.657C272.665 12.6893 278.346 18.3705 278.346 25.3786V41.8746C278.346 48.8827 272.665 54.5639 265.657 54.5639H259.312C252.304 54.5639 246.623 48.8827 246.623 41.8746V25.3786Z" fill="black"/>
<path d="M303.725 25.3786C303.725 18.3705 309.406 12.6893 316.414 12.6893H322.759C329.767 12.6893 335.448 18.3705 335.448 25.3786V41.8746C335.448 48.8827 329.767 54.5639 322.759 54.5639H316.414C309.406 54.5639 303.725 48.8827 303.725 41.8746V25.3786Z" fill="black"/>
<path d="M360.827 25.3786C360.827 18.3705 366.508 12.6893 373.516 12.6893H379.861C386.869 12.6893 392.55 18.3705 392.55 25.3786V41.8746C392.55 48.8827 386.869 54.5639 379.861 54.5639H373.516C366.508 54.5639 360.827 48.8827 360.827 41.8746V25.3786Z" fill="black"/>
<path d="M417.928 25.3786C417.928 18.3705 423.61 12.6893 430.618 12.6893H436.962C443.971 12.6893 449.652 18.3705 449.652 25.3786V41.8746C449.652 48.8827 443.971 54.5639 436.962 54.5639H430.618C423.61 54.5639 417.928 48.8827 417.928 41.8746V25.3786Z" fill="black"/>
<path d="M475.03 25.3786C475.03 18.3705 480.712 12.6893 487.72 12.6893H494.064C501.072 12.6893 506.754 18.3705 506.754 25.3786V41.8746C506.754 48.8827 501.072 54.5639 494.064 54.5639H487.72C480.712 54.5639 475.03 48.8827 475.03 41.8746V25.3786Z" fill="black"/>
<path d="M532.132 25.3786C532.132 18.3705 537.813 12.6893 544.821 12.6893H551.166C558.174 12.6893 563.855 18.3705 563.855 25.3786V41.8746C563.855 48.8827 558.174 54.5639 551.166 54.5639H544.821C537.813 54.5639 532.132 48.8827 532.132 41.8746V25.3786Z" fill="black"/>
<path d="M589.234 25.3786C589.234 18.3705 594.915 12.6893 601.923 12.6893H608.268C615.276 12.6893 620.957 18.3705 620.957 25.3786V41.8746C620.957 48.8827 615.276 54.5639 608.268 54.5639H601.923C594.915 54.5639 589.234 48.8827 589.234 41.8746V25.3786Z" fill="black"/>
<path d="M646.336 25.3786C646.336 18.3705 652.017 12.6893 659.025 12.6893H665.37C672.378 12.6893 678.059 18.3705 678.059 25.3786V41.8746C678.059 48.8827 672.378 54.5639 665.37 54.5639H659.025C652.017 54.5639 646.336 48.8827 646.336 41.8746V25.3786Z" fill="black"/>
<path d="M703.438 25.3786C703.438 18.3705 709.119 12.6893 716.127 12.6893H722.471C729.479 12.6893 735.161 18.3705 735.161 25.3786V41.8746C735.161 48.8827 729.479 54.5639 722.471 54.5639H716.127C709.119 54.5639 703.438 48.8827 703.438 41.8746V25.3786Z" fill="black"/>
<path d="M760.539 25.3786C760.539 18.3705 766.22 12.6893 773.229 12.6893H779.573C786.581 12.6893 792.262 18.3705 792.262 25.3786V41.8746C792.262 48.8827 786.581 54.5639 779.573 54.5639H773.229C766.22 54.5639 760.539 48.8827 760.539 41.8746V25.3786Z" fill="black"/>
<path d="M817.641 25.3786C817.641 18.3705 823.322 12.6893 830.33 12.6893H836.675C843.683 12.6893 849.364 18.3705 849.364 25.3786V41.8746C849.364 48.8827 843.683 54.5639 836.675 54.5639H830.33C823.322 54.5639 817.641 48.8827 817.641 41.8746V25.3786Z" fill="black"/>
<path d="M874.743 25.3786C874.743 18.3705 880.424 12.6893 887.432 12.6893H893.777C900.785 12.6893 906.466 18.3705 906.466 25.3786V41.8746C906.466 48.8827 900.785 54.5639 893.777 54.5639H887.432C880.424 54.5639 874.743 48.8827 874.743 41.8746V25.3786Z" fill="black"/>
<path d="M931.845 25.3786C931.845 18.3705 937.526 12.6893 944.534 12.6893H950.879C957.887 12.6893 963.568 18.3705 963.568 25.3786V41.8746C963.568 48.8827 957.887 54.5639 950.879 54.5639H944.534C937.526 54.5639 931.845 48.8827 931.845 41.8746V25.3786Z" fill="black"/>
<path d="M988.946 25.3786C988.946 18.3705 994.628 12.6893 1001.64 12.6893H1007.98C1014.99 12.6893 1020.67 18.3705 1020.67 25.3786V41.8746C1020.67 48.8827 1014.99 54.5639 1007.98 54.5639H1001.64C994.628 54.5639 988.946 48.8827 988.946 41.8746V25.3786Z" fill="black"/>
<path d="M1046.05 25.3786C1046.05 18.3705 1051.73 12.6893 1058.74 12.6893H1065.08C1072.09 12.6893 1077.77 18.3705 1077.77 25.3786V41.8746C1077.77 48.8827 1072.09 54.5639 1065.08 54.5639H1058.74C1051.73 54.5639 1046.05 48.8827 1046.05 41.8746V25.3786Z" fill="black"/>
<path d="M1103.15 25.3786C1103.15 18.3705 1108.83 12.6893 1115.84 12.6893H1122.18C1129.19 12.6893 1134.87 18.3705 1134.87 25.3786V41.8746C1134.87 48.8827 1129.19 54.5639 1122.18 54.5639H1115.84C1108.83 54.5639 1103.15 48.8827 1103.15 41.8746V25.3786Z" fill="black"/>
<path d="M1160.25 25.3786C1160.25 18.3705 1165.93 12.6893 1172.94 12.6893H1179.29C1186.29 12.6893 1191.97 18.3705 1191.97 25.3786V41.8746C1191.97 48.8827 1186.29 54.5639 1179.29 54.5639H1172.94C1165.93 54.5639 1160.25 48.8827 1160.25 41.8746V25.3786Z" fill="black"/>
<path d="M1217.35 25.3786C1217.35 18.3705 1223.03 12.6893 1230.04 12.6893H1236.39C1243.4 12.6893 1249.08 18.3705 1249.08 25.3786V41.8746C1249.08 48.8827 1243.4 54.5639 1236.39 54.5639H1230.04C1223.03 54.5639 1217.35 48.8827 1217.35 41.8746V25.3786Z" fill="black"/>
<path d="M1274.46 25.3786C1274.46 18.3705 1280.14 12.6893 1287.14 12.6893H1293.49C1300.5 12.6893 1306.18 18.3705 1306.18 25.3786V41.8746C1306.18 48.8827 1300.5 54.5639 1293.49 54.5639H1287.14C1280.14 54.5639 1274.46 48.8827 1274.46 41.8746V25.3786Z" fill="black"/>
<path d="M1331.56 25.3786C1331.56 18.3705 1337.24 12.6893 1344.25 12.6893H1350.59C1357.6 12.6893 1363.28 18.3705 1363.28 25.3786V41.8746C1363.28 48.8827 1357.6 54.5639 1350.59 54.5639H1344.25C1337.24 54.5639 1331.56 48.8827 1331.56 41.8746V25.3786Z" fill="black"/>
<path d="M1388.66 25.3786C1388.66 18.3705 1394.34 12.6893 1401.35 12.6893H1407.69C1414.7 12.6893 1420.38 18.3705 1420.38 25.3786V41.8746C1420.38 48.8827 1414.7 54.5639 1407.69 54.5639H1401.35C1394.34 54.5639 1388.66 48.8827 1388.66 41.8746V25.3786Z" fill="black"/>
<path d="M1445.76 25.3786C1445.76 18.3705 1451.44 12.6893 1458.45 12.6893H1464.79C1471.8 12.6893 1477.48 18.3705 1477.48 25.3786V41.8746C1477.48 48.8827 1471.8 54.5639 1464.79 54.5639H1458.45C1451.44 54.5639 1445.76 48.8827 1445.76 41.8746V25.3786Z" fill="black"/>
<path d="M1502.86 25.3786C1502.86 18.3705 1508.54 12.6893 1515.55 12.6893H1521.9C1528.9 12.6893 1534.59 18.3705 1534.59 25.3786V41.8746C1534.59 48.8827 1528.9 54.5639 1521.9 54.5639H1515.55C1508.54 54.5639 1502.86 48.8827 1502.86 41.8746V25.3786Z" fill="black"/>
<path d="M1559.96 25.3786C1559.96 18.3705 1565.65 12.6893 1572.65 12.6893H1579C1586.01 12.6893 1591.69 18.3705 1591.69 25.3786V41.8746C1591.69 48.8827 1586.01 54.5639 1579 54.5639H1572.65C1565.65 54.5639 1559.96 48.8827 1559.96 41.8746V25.3786Z" fill="black"/>
<path d="M1617.07 25.3786C1617.07 18.3705 1622.75 12.6893 1629.76 12.6893H1636.1C1643.11 12.6893 1648.79 18.3705 1648.79 25.3786V41.8746C1648.79 48.8827 1643.11 54.5639 1636.1 54.5639H1629.76C1622.75 54.5639 1617.07 48.8827 1617.07 41.8746V25.3786Z" fill="black"/>
<path d="M1674.17 25.3786C1674.17 18.3705 1679.85 12.6893 1686.86 12.6893H1693.2C1700.21 12.6893 1705.89 18.3705 1705.89 25.3786V41.8746C1705.89 48.8827 1700.21 54.5639 1693.2 54.5639H1686.86C1679.85 54.5639 1674.17 48.8827 1674.17 41.8746V25.3786Z" fill="black"/>
<path d="M1731.27 25.3786C1731.27 18.3705 1736.95 12.6893 1743.96 12.6893H1750.3C1757.31 12.6893 1762.99 18.3705 1762.99 25.3786V41.8746C1762.99 48.8827 1757.31 54.5639 1750.3 54.5639H1743.96C1736.95 54.5639 1731.27 48.8827 1731.27 41.8746V25.3786Z" fill="black"/>
<path d="M1788.37 25.3786C1788.37 18.3705 1794.05 12.6893 1801.06 12.6893H1807.41C1814.41 12.6893 1820.09 18.3705 1820.09 25.3786V41.8746C1820.09 48.8827 1814.41 54.5639 1807.41 54.5639H1801.06C1794.05 54.5639 1788.37 48.8827 1788.37 41.8746V25.3786Z" fill="black"/>
<path d="M1845.47 25.3786C1845.47 18.3705 1851.15 12.6893 1858.16 12.6893H1864.51C1871.52 12.6893 1877.2 18.3705 1877.2 25.3786V41.8746C1877.2 48.8827 1871.52 54.5639 1864.51 54.5639H1858.16C1851.15 54.5639 1845.47 48.8827 1845.47 41.8746V25.3786Z" fill="black"/>
<path d="M1902.57 25.3786C1902.57 18.3705 1908.26 12.6893 1915.26 12.6893H1921.61C1928.62 12.6893 1934.3 18.3705 1934.3 25.3786V41.8746C1934.3 48.8827 1928.62 54.5639 1921.61 54.5639H1915.26C1908.26 54.5639 1902.57 48.8827 1902.57 41.8746V25.3786Z" fill="black"/>
<path d="M1959.68 25.3786C1959.68 18.3705 1965.36 12.6893 1972.37 12.6893H1978.71C1985.72 12.6893 1991.4 18.3705 1991.4 25.3786V41.8746C1991.4 48.8827 1985.72 54.5639 1978.71 54.5639H1972.37C1965.36 54.5639 1959.68 48.8827 1959.68 41.8746V25.3786Z" fill="black"/>
<path d="M2016.78 25.3786C2016.78 18.3705 2022.46 12.6893 2029.47 12.6893H2035.81C2042.82 12.6893 2048.5 18.3705 2048.5 25.3786V41.8746C2048.5 48.8827 2042.82 54.5639 2035.81 54.5639H2029.47C2022.46 54.5639 2016.78 48.8827 2016.78 41.8746V25.3786Z" fill="black"/>
<path d="M2073.88 25.3786C2073.88 18.3705 2079.56 12.6893 2086.57 12.6893H2092.91C2099.92 12.6893 2105.6 18.3705 2105.6 25.3786V41.8746C2105.6 48.8827 2099.92 54.5639 2092.91 54.5639H2086.57C2079.56 54.5639 2073.88 48.8827 2073.88 41.8746V25.3786Z" fill="black"/>
<path d="M2130.98 25.3786C2130.98 18.3705 2136.66 12.6893 2143.67 12.6893H2150.02C2157.02 12.6893 2162.71 18.3705 2162.71 25.3786V41.8746C2162.71 48.8827 2157.02 54.5639 2150.02 54.5639H2143.67C2136.66 54.5639 2130.98 48.8827 2130.98 41.8746V25.3786Z" fill="black"/>
<path d="M2188.08 25.3786C2188.08 18.3705 2193.76 12.6893 2200.77 12.6893H2207.12C2214.13 12.6893 2219.81 18.3705 2219.81 25.3786V41.8746C2219.81 48.8827 2214.13 54.5639 2207.12 54.5639H2200.77C2193.76 54.5639 2188.08 48.8827 2188.08 41.8746V25.3786Z" fill="black"/>
<path d="M2245.19 25.3786C2245.19 18.3705 2250.87 12.6893 2257.88 12.6893H2264.22C2271.23 12.6893 2276.91 18.3705 2276.91 25.3786V41.8746C2276.91 48.8827 2271.23 54.5639 2264.22 54.5639H2257.88C2250.87 54.5639 2245.19 48.8827 2245.19 41.8746V25.3786Z" fill="black"/>
<path d="M2302.29 25.3786C2302.29 18.3705 2307.97 12.6893 2314.98 12.6893H2321.32C2328.33 12.6893 2334.01 18.3705 2334.01 25.3786V41.8746C2334.01 48.8827 2328.33 54.5639 2321.32 54.5639H2314.98C2307.97 54.5639 2302.29 48.8827 2302.29 41.8746V25.3786Z" fill="black"/>
<path d="M2359.39 25.3786C2359.39 18.3705 2365.07 12.6893 2372.08 12.6893H2378.42C2385.43 12.6893 2391.11 18.3705 2391.11 25.3786V41.8746C2391.11 48.8827 2385.43 54.5639 2378.42 54.5639H2372.08C2365.07 54.5639 2359.39 48.8827 2359.39 41.8746V25.3786Z" fill="black"/>
<path d="M2416.49 25.3786C2416.49 18.3705 2422.17 12.6893 2429.18 12.6893H2435.52C2442.53 12.6893 2448.21 18.3705 2448.21 25.3786V41.8746C2448.21 48.8827 2442.53 54.5639 2435.52 54.5639H2429.18C2422.17 54.5639 2416.49 48.8827 2416.49 41.8746V25.3786Z" fill="black"/>
<path d="M2473.59 25.3786C2473.59 18.3705 2479.27 12.6893 2486.28 12.6893H2492.63C2499.63 12.6893 2505.32 18.3705 2505.32 25.3786V41.8746C2505.32 48.8827 2499.63 54.5639 2492.63 54.5639H2486.28C2479.27 54.5639 2473.59 48.8827 2473.59 41.8746V25.3786Z" fill="black"/>
<path d="M2530.69 25.3786C2530.69 18.3705 2536.38 12.6893 2543.38 12.6893H2549.73C2556.74 12.6893 2562.42 18.3705 2562.42 25.3786V41.8746C2562.42 48.8827 2556.74 54.5639 2549.73 54.5639H2543.38C2536.38 54.5639 2530.69 48.8827 2530.69 41.8746V25.3786Z" fill="black"/>
<path d="M2587.8 25.3786C2587.8 18.3705 2593.48 12.6893 2600.49 12.6893H2606.83C2613.84 12.6893 2619.52 18.3705 2619.52 25.3786V41.8746C2619.52 48.8827 2613.84 54.5639 2606.83 54.5639H2600.49C2593.48 54.5639 2587.8 48.8827 2587.8 41.8746V25.3786Z" fill="black"/>
<path d="M2644.9 25.3786C2644.9 18.3705 2650.58 12.6893 2657.59 12.6893H2663.93C2670.94 12.6893 2676.62 18.3705 2676.62 25.3786V41.8746C2676.62 48.8827 2670.94 54.5639 2663.93 54.5639H2657.59C2650.58 54.5639 2644.9 48.8827 2644.9 41.8746V25.3786Z" fill="black"/>
<path d="M-838.311 346.417C-838.311 339.409 -832.63 333.728 -825.621 333.728H-819.277C-812.269 333.728 -806.588 339.409 -806.588 346.417V362.914C-806.588 369.922 -812.269 375.603 -819.277 375.603H-825.621C-832.63 375.603 -838.311 369.922 -838.311 362.914V346.417Z" fill="black"/>
<path d="M-781.209 346.417C-781.209 339.409 -775.528 333.728 -768.52 333.728H-762.175C-755.167 333.728 -749.486 339.409 -749.486 346.417V362.914C-749.486 369.922 -755.167 375.603 -762.175 375.603H-768.52C-775.528 375.603 -781.209 369.922 -781.209 362.914V346.417Z" fill="black"/>
<path d="M-724.107 346.417C-724.107 339.409 -718.426 333.728 -711.418 333.728H-705.073C-698.065 333.728 -692.384 339.409 -692.384 346.417V362.914C-692.384 369.922 -698.065 375.603 -705.073 375.603H-711.418C-718.426 375.603 -724.107 369.922 -724.107 362.914V346.417Z" fill="black"/>
<path d="M-667.005 346.417C-667.005 339.409 -661.324 333.728 -654.316 333.728H-647.971C-640.963 333.728 -635.282 339.409 -635.282 346.417V362.914C-635.282 369.922 -640.963 375.603 -647.971 375.603H-654.316C-661.324 375.603 -667.005 369.922 -667.005 362.914V346.417Z" fill="black"/>
<path d="M-609.904 346.417C-609.904 339.409 -604.222 333.728 -597.214 333.728H-590.87C-583.862 333.728 -578.18 339.409 -578.18 346.417V362.914C-578.18 369.922 -583.862 375.603 -590.87 375.603H-597.214C-604.222 375.603 -609.904 369.922 -609.904 362.914V346.417Z" fill="black"/>
<path d="M-552.802 346.417C-552.802 339.409 -547.121 333.728 -540.113 333.728H-533.768C-526.76 333.728 -521.079 339.409 -521.079 346.417V362.914C-521.079 369.922 -526.76 375.603 -533.768 375.603H-540.113C-547.121 375.603 -552.802 369.922 -552.802 362.914V346.417Z" fill="black"/>
<path d="M-495.7 346.417C-495.7 339.409 -490.019 333.728 -483.011 333.728H-476.666C-469.658 333.728 -463.977 339.409 -463.977 346.417V362.914C-463.977 369.922 -469.658 375.603 -476.666 375.603H-483.011C-490.019 375.603 -495.7 369.922 -495.7 362.914V346.417Z" fill="black"/>
<path d="M-438.598 346.417C-438.598 339.409 -432.917 333.728 -425.909 333.728H-419.564C-412.556 333.728 -406.875 339.409 -406.875 346.417V362.914C-406.875 369.922 -412.556 375.603 -419.564 375.603H-425.909C-432.917 375.603 -438.598 369.922 -438.598 362.914V346.417Z" fill="black"/>
<path d="M-381.496 346.417C-381.496 339.409 -375.815 333.728 -368.807 333.728H-362.463C-355.454 333.728 -349.773 339.409 -349.773 346.417V362.914C-349.773 369.922 -355.454 375.603 -362.463 375.603H-368.807C-375.815 375.603 -381.496 369.922 -381.496 362.914V346.417Z" fill="black"/>
<path d="M-324.395 346.417C-324.395 339.409 -318.714 333.728 -311.705 333.728H-305.361C-298.353 333.728 -292.671 339.409 -292.671 346.417V362.914C-292.671 369.922 -298.353 375.603 -305.361 375.603H-311.705C-318.714 375.603 -324.395 369.922 -324.395 362.914V346.417Z" fill="black"/>
<path d="M-267.293 346.417C-267.293 339.409 -261.612 333.728 -254.604 333.728H-248.259C-241.251 333.728 -235.57 339.409 -235.57 346.417V362.914C-235.57 369.922 -241.251 375.603 -248.259 375.603H-254.604C-261.612 375.603 -267.293 369.922 -267.293 362.914V346.417Z" fill="black"/>
<path d="M-210.191 346.417C-210.191 339.409 -204.51 333.728 -197.502 333.728H-191.157C-184.149 333.728 -178.468 339.409 -178.468 346.417V362.914C-178.468 369.922 -184.149 375.603 -191.157 375.603H-197.502C-204.51 375.603 -210.191 369.922 -210.191 362.914V346.417Z" fill="black"/>
<path d="M-153.089 346.417C-153.089 339.409 -147.408 333.728 -140.4 333.728H-134.055C-127.047 333.728 -121.366 339.409 -121.366 346.417V362.914C-121.366 369.922 -127.047 375.603 -134.055 375.603H-140.4C-147.408 375.603 -153.089 369.922 -153.089 362.914V346.417Z" fill="black"/>
<path d="M-95.9875 346.417C-95.9875 339.409 -90.3063 333.728 -83.2982 333.728H-76.9536C-69.9455 333.728 -64.2643 339.409 -64.2643 346.417V362.914C-64.2643 369.922 -69.9455 375.603 -76.9536 375.603H-83.2982C-90.3063 375.603 -95.9875 369.922 -95.9875 362.914V346.417Z" fill="black"/>
<path d="M-38.8857 346.417C-38.8857 339.409 -33.2045 333.728 -26.1965 333.728H-19.8518C-12.8437 333.728 -7.16254 339.409 -7.16254 346.417V362.914C-7.16254 369.922 -12.8437 375.603 -19.8518 375.603H-26.1965C-33.2045 375.603 -38.8857 369.922 -38.8857 362.914V346.417Z" fill="black"/>
<path d="M18.2161 346.417C18.2161 339.409 23.8972 333.728 30.9053 333.728H37.25C44.2581 333.728 49.9393 339.409 49.9393 346.417V362.914C49.9393 369.922 44.2581 375.603 37.25 375.603H30.9053C23.8972 375.603 18.2161 369.922 18.2161 362.914V346.417Z" fill="black"/>
<path d="M75.3178 346.417C75.3178 339.409 80.999 333.728 88.0071 333.728H94.3517C101.36 333.728 107.041 339.409 107.041 346.417V362.914C107.041 369.922 101.36 375.603 94.3517 375.603H88.0071C80.999 375.603 75.3178 369.922 75.3178 362.914V346.417Z" fill="black"/>
<path d="M132.42 346.417C132.42 339.409 138.101 333.728 145.109 333.728H151.454C158.462 333.728 164.143 339.409 164.143 346.417V362.914C164.143 369.922 158.462 375.603 151.454 375.603H145.109C138.101 375.603 132.42 369.922 132.42 362.914V346.417Z" fill="black"/>
<path d="M189.521 346.417C189.521 339.409 195.203 333.728 202.211 333.728H208.555C215.563 333.728 221.245 339.409 221.245 346.417V362.914C221.245 369.922 215.563 375.603 208.555 375.603H202.211C195.203 375.603 189.521 369.922 189.521 362.914V346.417Z" fill="black"/>
<path d="M246.623 346.417C246.623 339.409 252.304 333.728 259.312 333.728H265.657C272.665 333.728 278.346 339.409 278.346 346.417V362.914C278.346 369.922 272.665 375.603 265.657 375.603H259.312C252.304 375.603 246.623 369.922 246.623 362.914V346.417Z" fill="black"/>
<path d="M303.725 346.417C303.725 339.409 309.406 333.728 316.414 333.728H322.759C329.767 333.728 335.448 339.409 335.448 346.417V362.914C335.448 369.922 329.767 375.603 322.759 375.603H316.414C309.406 375.603 303.725 369.922 303.725 362.914V346.417Z" fill="black"/>
<path d="M360.827 346.417C360.827 339.409 366.508 333.728 373.516 333.728H379.861C386.869 333.728 392.55 339.409 392.55 346.417V362.914C392.55 369.922 386.869 375.603 379.861 375.603H373.516C366.508 375.603 360.827 369.922 360.827 362.914V346.417Z" fill="black"/>
<path d="M417.928 346.417C417.928 339.409 423.61 333.728 430.618 333.728H436.962C443.971 333.728 449.652 339.409 449.652 346.417V362.914C449.652 369.922 443.971 375.603 436.962 375.603H430.618C423.61 375.603 417.928 369.922 417.928 362.914V346.417Z" fill="black"/>
<path d="M475.03 346.417C475.03 339.409 480.712 333.728 487.72 333.728H494.064C501.072 333.728 506.754 339.409 506.754 346.417V362.914C506.754 369.922 501.072 375.603 494.064 375.603H487.72C480.712 375.603 475.03 369.922 475.03 362.914V346.417Z" fill="black"/>
<path d="M532.132 346.417C532.132 339.409 537.813 333.728 544.821 333.728H551.166C558.174 333.728 563.855 339.409 563.855 346.417V362.914C563.855 369.922 558.174 375.603 551.166 375.603H544.821C537.813 375.603 532.132 369.922 532.132 362.914V346.417Z" fill="black"/>
<path d="M589.234 346.417C589.234 339.409 594.915 333.728 601.923 333.728H608.268C615.276 333.728 620.957 339.409 620.957 346.417V362.914C620.957 369.922 615.276 375.603 608.268 375.603H601.923C594.915 375.603 589.234 369.922 589.234 362.914V346.417Z" fill="black"/>
<path d="M646.336 346.417C646.336 339.409 652.017 333.728 659.025 333.728H665.37C672.378 333.728 678.059 339.409 678.059 346.417V362.914C678.059 369.922 672.378 375.603 665.37 375.603H659.025C652.017 375.603 646.336 369.922 646.336 362.914V346.417Z" fill="black"/>
<path d="M703.438 346.417C703.438 339.409 709.119 333.728 716.127 333.728H722.471C729.479 333.728 735.161 339.409 735.161 346.417V362.914C735.161 369.922 729.479 375.603 722.471 375.603H716.127C709.119 375.603 703.438 369.922 703.438 362.914V346.417Z" fill="black"/>
<path d="M760.539 346.417C760.539 339.409 766.22 333.728 773.229 333.728H779.573C786.581 333.728 792.262 339.409 792.262 346.417V362.914C792.262 369.922 786.581 375.603 779.573 375.603H773.229C766.22 375.603 760.539 369.922 760.539 362.914V346.417Z" fill="black"/>
<path d="M817.641 346.417C817.641 339.409 823.322 333.728 830.33 333.728H836.675C843.683 333.728 849.364 339.409 849.364 346.417V362.914C849.364 369.922 843.683 375.603 836.675 375.603H830.33C823.322 375.603 817.641 369.922 817.641 362.914V346.417Z" fill="black"/>
<path d="M874.743 346.417C874.743 339.409 880.424 333.728 887.432 333.728H893.777C900.785 333.728 906.466 339.409 906.466 346.417V362.914C906.466 369.922 900.785 375.603 893.777 375.603H887.432C880.424 375.603 874.743 369.922 874.743 362.914V346.417Z" fill="black"/>
<path d="M931.845 346.417C931.845 339.409 937.526 333.728 944.534 333.728H950.879C957.887 333.728 963.568 339.409 963.568 346.417V362.914C963.568 369.922 957.887 375.603 950.879 375.603H944.534C937.526 375.603 931.845 369.922 931.845 362.914V346.417Z" fill="black"/>
<path d="M988.946 346.417C988.946 339.409 994.628 333.728 1001.64 333.728H1007.98C1014.99 333.728 1020.67 339.409 1020.67 346.417V362.914C1020.67 369.922 1014.99 375.603 1007.98 375.603H1001.64C994.628 375.603 988.946 369.922 988.946 362.914V346.417Z" fill="black"/>
<path d="M1046.05 346.417C1046.05 339.409 1051.73 333.728 1058.74 333.728H1065.08C1072.09 333.728 1077.77 339.409 1077.77 346.417V362.914C1077.77 369.922 1072.09 375.603 1065.08 375.603H1058.74C1051.73 375.603 1046.05 369.922 1046.05 362.914V346.417Z" fill="black"/>
<path d="M1103.15 346.417C1103.15 339.409 1108.83 333.728 1115.84 333.728H1122.18C1129.19 333.728 1134.87 339.409 1134.87 346.417V362.914C1134.87 369.922 1129.19 375.603 1122.18 375.603H1115.84C1108.83 375.603 1103.15 369.922 1103.15 362.914V346.417Z" fill="black"/>
<path d="M1160.25 346.417C1160.25 339.409 1165.93 333.728 1172.94 333.728H1179.29C1186.29 333.728 1191.97 339.409 1191.97 346.417V362.914C1191.97 369.922 1186.29 375.603 1179.29 375.603H1172.94C1165.93 375.603 1160.25 369.922 1160.25 362.914V346.417Z" fill="black"/>
<path d="M1217.35 346.417C1217.35 339.409 1223.03 333.728 1230.04 333.728H1236.39C1243.4 333.728 1249.08 339.409 1249.08 346.417V362.914C1249.08 369.922 1243.4 375.603 1236.39 375.603H1230.04C1223.03 375.603 1217.35 369.922 1217.35 362.914V346.417Z" fill="black"/>
<path d="M1274.46 346.417C1274.46 339.409 1280.14 333.728 1287.14 333.728H1293.49C1300.5 333.728 1306.18 339.409 1306.18 346.417V362.914C1306.18 369.922 1300.5 375.603 1293.49 375.603H1287.14C1280.14 375.603 1274.46 369.922 1274.46 362.914V346.417Z" fill="black"/>
<path d="M1331.56 346.417C1331.56 339.409 1337.24 333.728 1344.25 333.728H1350.59C1357.6 333.728 1363.28 339.409 1363.28 346.417V362.914C1363.28 369.922 1357.6 375.603 1350.59 375.603H1344.25C1337.24 375.603 1331.56 369.922 1331.56 362.914V346.417Z" fill="black"/>
<path d="M1388.66 346.417C1388.66 339.409 1394.34 333.728 1401.35 333.728H1407.69C1414.7 333.728 1420.38 339.409 1420.38 346.417V362.914C1420.38 369.922 1414.7 375.603 1407.69 375.603H1401.35C1394.34 375.603 1388.66 369.922 1388.66 362.914V346.417Z" fill="black"/>
<path d="M1445.76 346.417C1445.76 339.409 1451.44 333.728 1458.45 333.728H1464.79C1471.8 333.728 1477.48 339.409 1477.48 346.417V362.914C1477.48 369.922 1471.8 375.603 1464.79 375.603H1458.45C1451.44 375.603 1445.76 369.922 1445.76 362.914V346.417Z" fill="black"/>
<path d="M1502.86 346.417C1502.86 339.409 1508.54 333.728 1515.55 333.728H1521.9C1528.9 333.728 1534.59 339.409 1534.59 346.417V362.914C1534.59 369.922 1528.9 375.603 1521.9 375.603H1515.55C1508.54 375.603 1502.86 369.922 1502.86 362.914V346.417Z" fill="black"/>
<path d="M1559.96 346.417C1559.96 339.409 1565.65 333.728 1572.65 333.728H1579C1586.01 333.728 1591.69 339.409 1591.69 346.417V362.914C1591.69 369.922 1586.01 375.603 1579 375.603H1572.65C1565.65 375.603 1559.96 369.922 1559.96 362.914V346.417Z" fill="black"/>
<path d="M1617.07 346.417C1617.07 339.409 1622.75 333.728 1629.76 333.728H1636.1C1643.11 333.728 1648.79 339.409 1648.79 346.417V362.914C1648.79 369.922 1643.11 375.603 1636.1 375.603H1629.76C1622.75 375.603 1617.07 369.922 1617.07 362.914V346.417Z" fill="black"/>
<path d="M1674.17 346.417C1674.17 339.409 1679.85 333.728 1686.86 333.728H1693.2C1700.21 333.728 1705.89 339.409 1705.89 346.417V362.914C1705.89 369.922 1700.21 375.603 1693.2 375.603H1686.86C1679.85 375.603 1674.17 369.922 1674.17 362.914V346.417Z" fill="black"/>
<path d="M1731.27 346.417C1731.27 339.409 1736.95 333.728 1743.96 333.728H1750.3C1757.31 333.728 1762.99 339.409 1762.99 346.417V362.914C1762.99 369.922 1757.31 375.603 1750.3 375.603H1743.96C1736.95 375.603 1731.27 369.922 1731.27 362.914V346.417Z" fill="black"/>
<path d="M1788.37 346.417C1788.37 339.409 1794.05 333.728 1801.06 333.728H1807.41C1814.41 333.728 1820.09 339.409 1820.09 346.417V362.914C1820.09 369.922 1814.41 375.603 1807.41 375.603H1801.06C1794.05 375.603 1788.37 369.922 1788.37 362.914V346.417Z" fill="black"/>
<path d="M1845.47 346.417C1845.47 339.409 1851.15 333.728 1858.16 333.728H1864.51C1871.52 333.728 1877.2 339.409 1877.2 346.417V362.914C1877.2 369.922 1871.52 375.603 1864.51 375.603H1858.16C1851.15 375.603 1845.47 369.922 1845.47 362.914V346.417Z" fill="black"/>
<path d="M1902.57 346.417C1902.57 339.409 1908.26 333.728 1915.26 333.728H1921.61C1928.62 333.728 1934.3 339.409 1934.3 346.417V362.914C1934.3 369.922 1928.62 375.603 1921.61 375.603H1915.26C1908.26 375.603 1902.57 369.922 1902.57 362.914V346.417Z" fill="black"/>
<path d="M1959.68 346.417C1959.68 339.409 1965.36 333.728 1972.37 333.728H1978.71C1985.72 333.728 1991.4 339.409 1991.4 346.417V362.914C1991.4 369.922 1985.72 375.603 1978.71 375.603H1972.37C1965.36 375.603 1959.68 369.922 1959.68 362.914V346.417Z" fill="black"/>
<path d="M2016.78 346.417C2016.78 339.409 2022.46 333.728 2029.47 333.728H2035.81C2042.82 333.728 2048.5 339.409 2048.5 346.417V362.914C2048.5 369.922 2042.82 375.603 2035.81 375.603H2029.47C2022.46 375.603 2016.78 369.922 2016.78 362.914V346.417Z" fill="black"/>
<path d="M2073.88 346.417C2073.88 339.409 2079.56 333.728 2086.57 333.728H2092.91C2099.92 333.728 2105.6 339.409 2105.6 346.417V362.914C2105.6 369.922 2099.92 375.603 2092.91 375.603H2086.57C2079.56 375.603 2073.88 369.922 2073.88 362.914V346.417Z" fill="black"/>
<path d="M2130.98 346.417C2130.98 339.409 2136.66 333.728 2143.67 333.728H2150.02C2157.02 333.728 2162.71 339.409 2162.71 346.417V362.914C2162.71 369.922 2157.02 375.603 2150.02 375.603H2143.67C2136.66 375.603 2130.98 369.922 2130.98 362.914V346.417Z" fill="black"/>
<path d="M2188.08 346.417C2188.08 339.409 2193.76 333.728 2200.77 333.728H2207.12C2214.13 333.728 2219.81 339.409 2219.81 346.417V362.914C2219.81 369.922 2214.13 375.603 2207.12 375.603H2200.77C2193.76 375.603 2188.08 369.922 2188.08 362.914V346.417Z" fill="black"/>
<path d="M2245.19 346.417C2245.19 339.409 2250.87 333.728 2257.88 333.728H2264.22C2271.23 333.728 2276.91 339.409 2276.91 346.417V362.914C2276.91 369.922 2271.23 375.603 2264.22 375.603H2257.88C2250.87 375.603 2245.19 369.922 2245.19 362.914V346.417Z" fill="black"/>
<path d="M2302.29 346.417C2302.29 339.409 2307.97 333.728 2314.98 333.728H2321.32C2328.33 333.728 2334.01 339.409 2334.01 346.417V362.914C2334.01 369.922 2328.33 375.603 2321.32 375.603H2314.98C2307.97 375.603 2302.29 369.922 2302.29 362.914V346.417Z" fill="black"/>
<path d="M2359.39 346.417C2359.39 339.409 2365.07 333.728 2372.08 333.728H2378.42C2385.43 333.728 2391.11 339.409 2391.11 346.417V362.914C2391.11 369.922 2385.43 375.603 2378.42 375.603H2372.08C2365.07 375.603 2359.39 369.922 2359.39 362.914V346.417Z" fill="black"/>
<path d="M2416.49 346.417C2416.49 339.409 2422.17 333.728 2429.18 333.728H2435.52C2442.53 333.728 2448.21 339.409 2448.21 346.417V362.914C2448.21 369.922 2442.53 375.603 2435.52 375.603H2429.18C2422.17 375.603 2416.49 369.922 2416.49 362.914V346.417Z" fill="black"/>
<path d="M2473.59 346.417C2473.59 339.409 2479.27 333.728 2486.28 333.728H2492.63C2499.63 333.728 2505.32 339.409 2505.32 346.417V362.914C2505.32 369.922 2499.63 375.603 2492.63 375.603H2486.28C2479.27 375.603 2473.59 369.922 2473.59 362.914V346.417Z" fill="black"/>
<path d="M2530.69 346.417C2530.69 339.409 2536.38 333.728 2543.38 333.728H2549.73C2556.74 333.728 2562.42 339.409 2562.42 346.417V362.914C2562.42 369.922 2556.74 375.603 2549.73 375.603H2543.38C2536.38 375.603 2530.69 369.922 2530.69 362.914V346.417Z" fill="black"/>
<path d="M2587.8 346.417C2587.8 339.409 2593.48 333.728 2600.49 333.728H2606.83C2613.84 333.728 2619.52 339.409 2619.52 346.417V362.914C2619.52 369.922 2613.84 375.603 2606.83 375.603H2600.49C2593.48 375.603 2587.8 369.922 2587.8 362.914V346.417Z" fill="black"/>
<path d="M2644.9 346.417C2644.9 339.409 2650.58 333.728 2657.59 333.728H2663.93C2670.94 333.728 2676.62 339.409 2676.62 346.417V362.914C2676.62 369.922 2670.94 375.603 2663.93 375.603H2657.59C2650.58 375.603 2644.9 369.922 2644.9 362.914V346.417Z" fill="black"/>
</svg>
