<svg width="25" height="25" viewBox="0 0 25 25" fill="none" xmlns="http://www.w3.org/2000/svg">
<path d="M12.5 2.08337C11.1321 2.08337 9.77756 2.35281 8.51375 2.8763C7.24995 3.39978 6.10162 4.16707 5.13434 5.13434C3.18084 7.08785 2.08337 9.73737 2.08337 12.5C2.08337 17.1042 5.07296 21.0105 9.20837 22.3959C9.72921 22.4792 9.89587 22.1563 9.89587 21.875V20.1146C7.01046 20.7396 6.39587 18.7188 6.39587 18.7188C5.91671 17.5105 5.23962 17.1875 5.23962 17.1875C4.29171 16.5417 5.31254 16.5625 5.31254 16.5625C6.35421 16.6355 6.90629 17.6355 6.90629 17.6355C7.81254 19.2188 9.34379 18.75 9.93754 18.5C10.0313 17.823 10.3021 17.3646 10.5938 17.1042C8.28129 16.8438 5.85421 15.948 5.85421 11.9792C5.85421 10.823 6.25004 9.89587 6.92712 9.15629C6.82296 8.89587 6.45837 7.81254 7.03129 6.40629C7.03129 6.40629 7.90629 6.12504 9.89587 7.46879C10.7188 7.23962 11.6146 7.12504 12.5 7.12504C13.3855 7.12504 14.2813 7.23962 15.1042 7.46879C17.0938 6.12504 17.9688 6.40629 17.9688 6.40629C18.5417 7.81254 18.1771 8.89587 18.073 9.15629C18.75 9.89587 19.1459 10.823 19.1459 11.9792C19.1459 15.9584 16.7084 16.8334 14.3855 17.0938C14.7605 17.4167 15.1042 18.0521 15.1042 19.0209V21.875C15.1042 22.1563 15.2709 22.4896 15.8021 22.3959C19.9375 21 22.9167 17.1042 22.9167 12.5C22.9167 11.1321 22.6473 9.77756 22.1238 8.51375C21.6003 7.24995 20.833 6.10162 19.8657 5.13434C18.8985 4.16707 17.7501 3.39978 16.4863 2.8763C15.2225 2.35281 13.868 2.08337 12.5 2.08337Z" fill="white"/>
</svg>
