<svg width="54" height="54" viewBox="0 0 54 54" fill="none" xmlns="http://www.w3.org/2000/svg">
<path d="M35.4937 46.2755H19.5227V37.9179H35.4937V46.2755Z" fill="#F0ECE2"/>
<path fill-rule="evenodd" clip-rule="evenodd" d="M48.3639 0.0718994C49.2114 -0.189614 50.1107 0.284638 50.3725 1.13126L52.3851 7.6399C52.6468 8.48655 52.172 9.38497 51.3246 9.64653L9.76285 22.473V23.1022H52.3939C53.2809 23.1022 54 23.8206 54 24.7067V30.8683C53.9999 31.7544 53.2809 32.4728 52.3939 32.4729H52.2252V51.2846C52.2252 52.7843 51.0083 54 49.5072 54H6.26978C4.76871 54 3.5518 52.7842 3.55177 51.2846V32.4729H3.38346C2.49647 32.4729 1.77742 31.7545 1.77737 30.8683V22.1699L0.0719764 16.6548C-0.189829 15.8081 0.284994 14.9097 1.13249 14.6482L48.3639 0.0718994ZM8.93881 36.2718C8.48381 36.2718 8.11491 36.6403 8.11489 37.0948C8.11492 37.5494 8.48382 37.9179 8.93881 37.9179H17.8749V46.2755H8.93881C8.4838 46.2756 8.11489 46.6441 8.11489 47.0987C8.11492 47.5532 8.48382 47.9218 8.93881 47.9218H46.8382C47.2932 47.9218 47.6621 47.5532 47.6621 47.0987C47.6621 46.6441 47.2932 46.2755 46.8382 46.2755H37.1415V37.9179H46.8382C47.2932 37.9179 47.6621 37.5494 47.6621 37.0948C47.6621 36.6403 47.2932 36.2718 46.8382 36.2718H8.93881ZM11.2049 31.2066H18.3332L23.451 24.56H16.5144L11.2049 31.2066ZM24.8943 31.2066H32.0227L37.1404 24.56H30.2039L24.8943 31.2066ZM38.8373 31.2066H45.9657L51.0834 24.56H44.1469L38.8373 31.2066ZM5.83339 20.8229C4.78335 20.8229 3.93208 21.6733 3.93206 22.7223C3.93208 23.7713 4.78335 24.6217 5.83339 24.6217C6.88344 24.6217 7.73469 23.7713 7.73472 22.7223C7.73469 21.6732 6.88344 20.8229 5.83339 20.8229ZM9.0182 13.5672L16.2657 18.8042L16.2905 18.8223L22.9675 16.7617L15.9066 11.4681L15.8814 11.4491L9.0182 13.5672ZM22.2038 9.49791L29.4513 14.7349L29.4761 14.753L36.1532 12.6924L29.0922 7.39884L29.0671 7.37991L22.2038 9.49791ZM35.6335 5.3534L42.9058 10.6084L49.5829 8.54787L42.4967 3.23528L35.6335 5.3534Z" fill="#F0ECE2"/>
</svg>
