<svg width="137" height="54" viewBox="0 0 137 54" fill="none" xmlns="http://www.w3.org/2000/svg">
<path d="M0 21.7755V0.346938H17.3725V4.29592H4.95041V8.70408H10.9155C13.5188 8.70408 15.4969 9.2449 16.8498 10.3265C18.2232 11.4082 18.9099 12.9796 18.9099 15.0408C18.9099 17.1633 18.1515 18.8163 16.6346 20C15.1177 21.1837 12.9756 21.7755 10.2083 21.7755H0ZM4.95041 18.102H9.93156C11.2025 18.102 12.1762 17.8571 12.8526 17.3673C13.5291 16.8571 13.8673 16.1224 13.8673 15.1633C13.8673 13.2857 12.5554 12.3469 9.93156 12.3469H4.95041V18.102Z" fill="#F0ECE2"/>
<path d="M27.282 8.97959H37.644V12.8367H27.282V8.97959ZM27.651 17.7959H39.3659V21.7755H22.7006V0.346938H38.9662V4.32653H27.651V17.7959Z" fill="#F0ECE2"/>
<path d="M41.4522 19.8776L42.9896 16.3265C43.912 16.8776 44.896 17.3061 45.9414 17.6122C47.0073 17.898 48.0425 18.0612 49.0469 18.102C50.0719 18.1224 50.9943 18.0204 51.8142 17.7959C52.6547 17.5714 53.3209 17.2347 53.8128 16.7857C54.3253 16.3367 54.5815 15.7653 54.5815 15.0714C54.5815 14.2551 54.2433 13.6531 53.5669 13.2653C52.8904 12.8571 51.9885 12.6531 50.8611 12.6531H45.6032V8.91837H50.4921C51.4965 8.91837 52.2755 8.71429 52.8289 8.30612C53.4029 7.89796 53.6899 7.33673 53.6899 6.62245C53.6899 6.0102 53.4849 5.52041 53.0749 5.15306C52.6649 4.76531 52.1012 4.47959 51.3838 4.29592C50.6868 4.11224 49.8976 4.03061 49.0162 4.05102C48.1347 4.07143 47.2226 4.21429 46.2796 4.47959C45.3367 4.7449 44.4348 5.11224 43.5738 5.58163L42.0672 1.7551C43.4611 1.04082 44.9267 0.551021 46.4641 0.285715C48.022 3.89059e-07 49.5184 -0.0714285 50.9533 0.0714281C52.4087 0.193878 53.7206 0.520408 54.889 1.05102C56.0575 1.56122 56.9901 2.23469 57.6871 3.07143C58.384 3.90816 58.7325 4.89796 58.7325 6.04082C58.7325 7.06123 58.466 7.96939 57.9331 8.76531C57.4001 9.56122 56.6519 10.1735 55.6885 10.602C54.7455 11.0306 53.6591 11.2449 52.4292 11.2449L52.5522 10.1429C53.9871 10.1429 55.2273 10.3878 56.2727 10.8776C57.3386 11.3469 58.1586 12.0102 58.7325 12.8673C59.327 13.7041 59.6242 14.6735 59.6242 15.7755C59.6242 16.7959 59.3475 17.7143 58.794 18.5306C58.261 19.3265 57.5231 20 56.5802 20.551C55.6372 21.102 54.561 21.5102 53.3516 21.7755C52.1422 22.0408 50.8508 22.1531 49.4774 22.1122C48.1245 22.0714 46.7613 21.8776 45.3879 21.5306C44.0145 21.1633 42.7026 20.6122 41.4522 19.8776Z" fill="#F0ECE2"/>
<path d="M0 53.6633V32.2347H19.6171V53.6633H14.6667V35.1429L15.8044 36.2755H3.81273L4.95041 35.1429V53.6633H0Z" fill="#F0ECE2"/>
<path d="M25.0177 54C24.6487 54 24.2593 53.9694 23.8493 53.9082C23.4598 53.8469 23.0293 53.7653 22.5579 53.6633L22.8654 49.4694C23.1523 49.551 23.4496 49.5918 23.7571 49.5918C24.5975 49.5918 25.2534 49.2551 25.7249 48.5816C26.1964 47.8878 26.5346 46.898 26.7396 45.6122C26.9446 44.3265 27.0778 42.7653 27.1393 40.9286L27.4468 32.2347H43.9892V53.6633H39.0695V35.1429L40.2072 36.2755H30.7061L31.7207 35.0816L31.5363 40.7449C31.4748 42.8469 31.3313 44.7143 31.1058 46.3469C30.8803 47.9796 30.5318 49.3673 30.0604 50.5102C29.5889 51.6531 28.9432 52.5204 28.1232 53.1122C27.3033 53.7041 26.2681 54 25.0177 54Z" fill="#F0ECE2"/>
<path d="M53.9462 40.8673H64.3082V44.7245H53.9462V40.8673ZM54.3152 49.6837H66.0301V53.6633H49.3647V32.2347H65.6304V36.2143H54.3152V49.6837ZM60.6185 30.3367C60.024 30.3367 59.5218 30.1429 59.1118 29.7551C58.7018 29.3673 58.4969 28.8571 58.4969 28.2245C58.4969 27.5918 58.7018 27.0816 59.1118 26.6939C59.5218 26.3061 60.024 26.1122 60.6185 26.1122C61.2129 26.1122 61.7151 26.3061 62.1251 26.6939C62.5556 27.0816 62.7708 27.5918 62.7708 28.2245C62.7708 28.8571 62.5556 29.3673 62.1251 29.7551C61.7151 30.1429 61.2129 30.3367 60.6185 30.3367ZM54.4074 30.3367C53.8129 30.3367 53.3005 30.1429 52.87 29.7551C52.46 29.3673 52.255 28.8571 52.255 28.2245C52.255 27.5918 52.46 27.0816 52.87 26.6939C53.3005 26.3061 53.8129 26.1122 54.4074 26.1122C55.0018 26.1122 55.5041 26.3061 55.914 26.6939C56.324 27.0816 56.529 27.5918 56.529 28.2245C56.529 28.8571 56.324 29.3673 55.914 29.7551C55.5041 30.1429 55.0018 30.3367 54.4074 30.3367Z" fill="#F0ECE2"/>
<path d="M84.8125 32.2347H89.7936V53.6633H84.8125V32.2347ZM75.0346 53.6633H70.0535V32.2347H75.0346V53.6633ZM85.1815 44.8775H74.6657V40.6837H85.1815V44.8775Z" fill="#F0ECE2"/>
<path d="M109.115 53.6633L102.412 43.3469L106.44 40.9286L114.773 53.6633H109.115ZM95.1248 53.6633V32.2347H100.075V53.6633H95.1248ZM98.63 45.0306V40.898H106.133V45.0306H98.63ZM106.901 43.5L102.32 42.949L109.3 32.2347H114.557L106.901 43.5Z" fill="#F0ECE2"/>
<path d="M117.106 53.6633V32.2347H122.057V46.1939L132.326 32.2347H137V53.6633H132.08V39.7347L121.811 53.6633H117.106Z" fill="#F0ECE2"/>
</svg>
