<svg width="209" height="54" viewBox="0 0 209 54" fill="none" xmlns="http://www.w3.org/2000/svg">
<g filter="url(#filter0_n_157_14)">
<path d="M72.1939 21.9104V0.571575H89.4174V4.50402H77.1019V8.89373H83.0158C85.5967 8.89373 87.5579 9.43228 88.8992 10.5094C90.2608 11.5865 90.9416 13.1513 90.9416 15.2039C90.9416 17.3175 90.1897 18.9636 88.6858 20.1424C87.1819 21.3211 85.0582 21.9104 82.3146 21.9104H72.1939ZM77.1019 18.2523H82.0403C83.3003 18.2523 84.2656 18.0085 84.9363 17.5207C85.6069 17.0127 85.9422 16.281 85.9422 15.3259C85.9422 13.4562 84.6416 12.5213 82.0403 12.5213H77.1019V18.2523Z" fill="#F0ECE2"/>
<path d="M99.2419 9.16809H109.515V13.0091H99.2419V9.16809ZM99.6077 17.9475H111.222V21.9104H94.6997V0.571575H110.826V4.5345H99.6077V17.9475Z" fill="#F0ECE2"/>
<path d="M113.29 20.0204L114.815 16.4843C115.729 17.033 116.705 17.4598 117.741 17.7646C118.798 18.0491 119.824 18.2117 120.82 18.2523C121.836 18.2727 122.751 18.1711 123.564 17.9475C124.397 17.724 125.057 17.3886 125.545 16.9415C126.053 16.4944 126.307 15.9254 126.307 15.2344C126.307 14.4215 125.972 13.822 125.301 13.4359C124.631 13.0294 123.736 12.8262 122.619 12.8262H117.406V9.10712H122.253C123.249 9.10712 124.021 8.90389 124.57 8.49744C125.139 8.09098 125.423 7.53211 125.423 6.82081C125.423 6.21113 125.22 5.72338 124.813 5.35758C124.407 4.97144 123.848 4.68693 123.137 4.50402C122.446 4.32112 121.663 4.23983 120.79 4.26015C119.916 4.28047 119.011 4.42273 118.077 4.68693C117.142 4.95112 116.247 5.31693 115.394 5.78435L113.9 1.97384C115.282 1.26255 116.735 0.774803 118.259 0.510608C119.804 0.22609 121.287 0.15496 122.71 0.297218C124.153 0.419155 125.454 0.744319 126.612 1.27271C127.77 1.78078 128.695 2.45143 129.386 3.28466C130.077 4.11789 130.423 5.10354 130.423 6.24161C130.423 7.25775 130.158 8.16211 129.63 8.9547C129.102 9.74728 128.36 10.357 127.405 10.7837C126.47 11.2105 125.393 11.4239 124.173 11.4239L124.295 10.3265C125.718 10.3265 126.947 10.5704 127.984 11.0581C129.041 11.5255 129.854 12.186 130.423 13.0396C131.012 13.8728 131.307 14.8381 131.307 15.9356C131.307 16.9517 131.032 17.8662 130.484 18.6791C129.955 19.4717 129.224 20.1424 128.289 20.6911C127.354 21.2398 126.287 21.6462 125.088 21.9104C123.889 22.1746 122.608 22.2864 121.247 22.2458C119.906 22.2051 118.554 22.012 117.192 21.6666C115.831 21.3007 114.53 20.752 113.29 20.0204Z" fill="#F0ECE2"/>
<path d="M72.1939 53.6647V32.3258H91.6428V53.6647H86.7348V35.2218L87.8627 36.3497H75.9739L77.1019 35.2218V53.6647H72.1939Z" fill="#F0ECE2"/>
<path d="M96.997 54C96.6312 54 96.2451 53.9695 95.8386 53.9086C95.4525 53.8476 95.0257 53.7663 94.5583 53.6647L94.8631 49.4884C95.1476 49.5696 95.4423 49.6103 95.7472 49.6103C96.5804 49.6103 97.2307 49.275 97.6981 48.6043C98.1656 47.9133 98.5009 46.9277 98.7041 45.6474C98.9073 44.367 99.0394 42.8123 99.1004 40.9833L99.4052 32.3258H115.806V53.6647H110.928V35.2218L112.056 36.3497H102.637L103.643 35.1608L103.46 40.8004C103.399 42.8936 103.256 44.7532 103.033 46.379C102.809 48.0048 102.464 49.3867 101.996 50.5248C101.529 51.6629 100.889 52.5266 100.076 53.116C99.263 53.7053 98.2367 54 96.997 54Z" fill="#F0ECE2"/>
<path d="M125.677 40.9223H135.95V44.7633H125.677V40.9223ZM126.043 49.7017H137.658V53.6647H121.135V32.3258H137.261V36.2887H126.043V49.7017ZM132.292 30.4358C131.703 30.4358 131.205 30.2427 130.799 29.8566C130.392 29.4705 130.189 28.9624 130.189 28.3324C130.189 27.7024 130.392 27.1943 130.799 26.8082C131.205 26.4221 131.703 26.229 132.292 26.229C132.882 26.229 133.38 26.4221 133.786 26.8082C134.213 27.1943 134.426 27.7024 134.426 28.3324C134.426 28.9624 134.213 29.4705 133.786 29.8566C133.38 30.2427 132.882 30.4358 132.292 30.4358ZM126.135 30.4358C125.545 30.4358 125.037 30.2427 124.61 29.8566C124.204 29.4705 124.001 28.9624 124.001 28.3324C124.001 27.7024 124.204 27.1943 124.61 26.8082C125.037 26.4221 125.545 26.229 126.135 26.229C126.724 26.229 127.222 26.4221 127.628 26.8082C128.035 27.1943 128.238 27.7024 128.238 28.3324C128.238 28.9624 128.035 29.4705 127.628 29.8566C127.222 30.2427 126.724 30.4358 126.135 30.4358Z" fill="#F0ECE2"/>
<path d="M156.279 32.3258H161.217V53.6647H156.279V32.3258ZM146.585 53.6647H141.646V32.3258H146.585V53.6647ZM156.645 44.9157H146.219V40.7394H156.645V44.9157Z" fill="#F0ECE2"/>
<path d="M180.373 53.6647L173.727 43.3915L177.721 40.9833L185.982 53.6647H180.373ZM166.503 53.6647V32.3258H171.411V53.6647H166.503ZM169.978 45.0682V40.9528H177.416V45.0682H169.978ZM178.178 43.544L173.636 42.9952L180.556 32.3258H185.769L178.178 43.544Z" fill="#F0ECE2"/>
<path d="M188.295 53.6647V32.3258H193.203V46.2266L203.385 32.3258H208.019V53.6647H203.141V39.7944L192.959 53.6647H188.295Z" fill="#F0ECE2"/>
<path d="M35.2733 45.9882H19.4015V37.6825H35.2733V45.9882Z" fill="#F0ECE2"/>
<path fill-rule="evenodd" clip-rule="evenodd" d="M48.0636 0.0714529C48.9058 -0.188437 49.7995 0.282871 50.0597 1.12424L52.0598 7.59246C52.3199 8.43385 51.8481 9.32669 51.0059 9.58663L9.70222 22.3335V22.9587H52.0686C52.95 22.9588 53.6647 23.6727 53.6647 24.5533V30.6767C53.6646 31.5572 52.95 32.2712 52.0686 32.2712H51.9009V50.9662C51.9009 52.4565 50.6916 53.6647 49.1998 53.6647H6.23085C4.7391 53.6647 3.52975 52.4565 3.52972 50.9662V32.2712H3.36245C2.48097 32.2712 1.76638 31.5573 1.76633 30.6767V22.0322L0.0715295 16.5514C-0.18865 15.7099 0.283224 14.8171 1.12546 14.5572L48.0636 0.0714529ZM8.8833 36.0466C8.43113 36.0466 8.06452 36.4127 8.0645 36.8645C8.06453 37.3162 8.43114 37.6825 8.8833 37.6825H17.7639V45.9882H8.8833C8.43112 45.9882 8.0645 46.3544 8.0645 46.8062C8.06453 47.2579 8.43114 47.6242 8.8833 47.6242H46.5473C46.9995 47.6242 47.3661 47.2579 47.3662 46.8062C47.3662 46.3544 46.9995 45.9882 46.5473 45.9882H36.9109V37.6825H46.5473C46.9995 37.6825 47.3661 37.3162 47.3662 36.8645C47.3661 36.4127 46.9995 36.0466 46.5473 36.0466H8.8833ZM11.1353 31.0128H18.2194L23.3054 24.4075H16.4119L11.1353 31.0128ZM24.7397 31.0128H31.8239L36.9098 24.4075H30.0163L24.7397 31.0128ZM38.5961 31.0128H45.6802L50.7662 24.4075H43.8727L38.5961 31.0128ZM5.79717 20.6936C4.75365 20.6936 3.90767 21.5387 3.90764 22.5812C3.90767 23.6237 4.75365 24.4688 5.79717 24.4688C6.84069 24.4688 7.68666 23.6237 7.68669 22.5812C7.68666 21.5387 6.84069 20.6936 5.79717 20.6936ZM8.96219 13.483L16.1647 18.6875L16.1894 18.7054L22.8249 16.6576L15.8078 11.3969L15.7828 11.378L8.96219 13.483ZM22.0659 9.43893L29.2684 14.6434L29.2931 14.6614L35.9287 12.6136L28.9116 7.35289L28.8866 7.33409L22.0659 9.43893ZM35.4123 5.32015L42.6394 10.5425L49.275 8.49479L42.2328 3.21519L35.4123 5.32015Z" fill="#F0ECE2"/>
</g>
<defs>
<filter id="filter0_n_157_14" x="0" y="0" width="208.019" height="54" filterUnits="userSpaceOnUse" color-interpolation-filters="sRGB">
<feFlood flood-opacity="0" result="BackgroundImageFix"/>
<feBlend mode="normal" in="SourceGraphic" in2="BackgroundImageFix" result="shape"/>
<feTurbulence type="fractalNoise" baseFrequency="1 1" stitchTiles="stitch" numOctaves="3" result="noise" seed="7560" />
<feColorMatrix in="noise" type="luminanceToAlpha" result="alphaNoise" />
<feComponentTransfer in="alphaNoise" result="coloredNoise1">
<feFuncA type="discrete" tableValues="0 0 0 0 0 0 0 0 0 0 0 0 0 0 1 1 1 1 1 1 1 1 1 1 1 1 1 1 1 1 1 1 1 1 1 0 0 0 0 0 0 0 0 0 0 0 0 0 0 0 0 0 0 0 0 0 0 0 0 0 0 0 0 0 0 0 0 0 0 0 0 0 0 0 0 0 0 0 0 0 0 0 0 0 0 0 0 0 0 0 0 0 0 0 0 0 0 0 0 0 "/>
</feComponentTransfer>
<feComposite operator="in" in2="shape" in="coloredNoise1" result="noise1Clipped" />
<feFlood flood-color="rgba(38, 38, 38, 0.1)" result="color1Flood" />
<feComposite operator="in" in2="noise1Clipped" in="color1Flood" result="color1" />
<feMerge result="effect1_noise_157_14">
<feMergeNode in="shape" />
<feMergeNode in="color1" />
</feMerge>
</filter>
</defs>
</svg>
