<svg width="414" height="618" viewBox="0 0 414 618" fill="none" xmlns="http://www.w3.org/2000/svg">
<path fill-rule="evenodd" clip-rule="evenodd" d="M398.984 29.9896V13.9238H383.969V0H30.0311V13.9238H15.0155V29.9896H0L0 588.01H15.0155V604.076H30.0311V618H383.969V604.076H398.984V588.01H414L414 29.9896H398.984ZM15.0155 584.797H3.21762L3.21762 33.2028H15.0155L15.0155 584.797ZM30.0311 29.9896H17.1606V16.0659H30.0311V29.9896ZM380.751 584.797V601.934H33.2487V584.797H17.1606L17.1606 33.2028H33.2487V16.0659H380.751V33.2028H396.839L396.839 584.797H380.751ZM17.1606 601.934V588.01H30.0311V601.934H17.1606ZM33.2487 13.9238V3.2132H380.751V13.9238H33.2487ZM380.751 614.787H33.2487V604.076H380.751V614.787ZM383.969 29.9896V16.0659H396.839V29.9896H383.969ZM383.969 601.934V588.01H396.839V601.934H383.969ZM398.984 584.797L398.984 33.2028H410.782L410.782 584.797H398.984Z" fill="white"/>
</svg>
