<svg width="150" height="21" viewBox="0 0 150 21" fill="none" xmlns="http://www.w3.org/2000/svg">
<path d="M11.3517 17.5927L5.8488 20.8031C5.6057 20.9529 5.35155 21.0171 5.08635 20.9957C4.82115 20.9743 4.5891 20.8887 4.3902 20.7389C4.19131 20.5891 4.03661 20.402 3.92611 20.1777C3.81561 19.9534 3.79351 19.7017 3.85981 19.4226L5.3184 13.3551L0.44537 9.27792C0.224371 9.0853 0.086467 8.86571 0.0316592 8.61915C-0.0231486 8.3726 -0.00679475 8.13204 0.0807209 7.89747C0.168237 7.6629 0.300836 7.47027 0.478519 7.3196C0.656203 7.16893 0.899302 7.07262 1.20782 7.03067L7.63889 6.48491L10.1251 0.770485C10.2356 0.513657 10.4071 0.321035 10.6396 0.192621C10.8721 0.0642069 11.1095 0 11.3517 0C11.5939 0 11.8312 0.0642069 12.0637 0.192621C12.2962 0.321035 12.4677 0.513657 12.5782 0.770485L15.0645 6.48491L21.4955 7.03067C21.8049 7.07348 22.048 7.16979 22.2248 7.3196C22.4016 7.46942 22.5342 7.66204 22.6226 7.89747C22.711 8.13289 22.7278 8.37388 22.673 8.62044C22.6182 8.86699 22.4799 9.08615 22.258 9.27792L17.385 13.3551L18.8435 19.4226C18.9098 19.7009 18.8878 19.9526 18.7773 20.1777C18.6668 20.4029 18.5121 20.5899 18.3132 20.7389C18.1143 20.8878 17.8822 20.9734 17.617 20.9957C17.3518 21.018 17.0977 20.9538 16.8546 20.8031L11.3517 17.5927Z" fill="white"/>
<path d="M43.1756 17.5927L37.6727 20.8031C37.4296 20.9529 37.1754 21.0171 36.9102 20.9957C36.645 20.9743 36.413 20.8887 36.2141 20.7389C36.0152 20.5891 35.8605 20.402 35.75 20.1777C35.6395 19.9534 35.6174 19.7017 35.6837 19.4226L37.1423 13.3551L32.2692 9.27792C32.0483 9.0853 31.9103 8.86571 31.8555 8.61915C31.8007 8.3726 31.8171 8.13204 31.9046 7.89747C31.9921 7.6629 32.1247 7.47027 32.3024 7.3196C32.4801 7.16893 32.7232 7.07262 33.0317 7.03067L39.4628 6.48491L41.949 0.770485C42.0595 0.513657 42.231 0.321035 42.4635 0.192621C42.696 0.0642069 42.9333 0 43.1756 0C43.4178 0 43.6551 0.0642069 43.8876 0.192621C44.1201 0.321035 44.2916 0.513657 44.4021 0.770485L46.8883 6.48491L53.3194 7.03067C53.6288 7.07348 53.8719 7.16979 54.0487 7.3196C54.2255 7.46942 54.3581 7.66204 54.4465 7.89747C54.5349 8.13289 54.5517 8.37388 54.4969 8.62044C54.4421 8.86699 54.3038 9.08615 54.0819 9.27792L49.2088 13.3551L50.6674 19.4226C50.7337 19.7009 50.7116 19.9526 50.6011 20.1777C50.4906 20.4029 50.3359 20.5899 50.137 20.7389C49.9381 20.8878 49.7061 20.9734 49.4409 20.9957C49.1757 21.018 48.9215 20.9538 48.6784 20.8031L43.1756 17.5927Z" fill="white"/>
<path d="M74.9994 17.5927L69.4966 20.8031C69.2535 20.9529 68.9993 21.0171 68.7341 20.9957C68.4689 20.9743 68.2369 20.8887 68.038 20.7389C67.8391 20.5891 67.6844 20.402 67.5739 20.1777C67.4634 19.9534 67.4413 19.7017 67.5076 19.4226L68.9662 13.3551L64.0931 9.27792C63.8721 9.0853 63.7342 8.86571 63.6794 8.61915C63.6246 8.3726 63.641 8.13204 63.7285 7.89747C63.816 7.6629 63.9486 7.47027 64.1263 7.3196C64.304 7.16893 64.5471 7.07262 64.8556 7.03067L71.2867 6.48491L73.7729 0.770485C73.8834 0.513657 74.0549 0.321035 74.2874 0.192621C74.5199 0.0642069 74.7572 0 74.9994 0C75.2417 0 75.479 0.0642069 75.7115 0.192621C75.944 0.321035 76.1155 0.513657 76.226 0.770485L78.7122 6.48491L85.1433 7.03067C85.4527 7.07348 85.6958 7.16979 85.8726 7.3196C86.0494 7.46942 86.182 7.66204 86.2704 7.89747C86.3588 8.13289 86.3756 8.37388 86.3208 8.62044C86.266 8.86699 86.1276 9.08615 85.9057 9.27792L81.0327 13.3551L82.4913 19.4226C82.5576 19.7009 82.5355 19.9526 82.425 20.1777C82.3145 20.4029 82.1598 20.5899 81.9609 20.7389C81.762 20.8878 81.53 20.9734 81.2648 20.9957C80.9996 21.018 80.7454 20.9538 80.5023 20.8031L74.9994 17.5927Z" fill="white"/>
<path d="M106.823 17.5927L101.32 20.8031C101.077 20.9529 100.823 21.0171 100.558 20.9957C100.293 20.9743 100.061 20.8887 99.8618 20.7389C99.6629 20.5891 99.5082 20.402 99.3977 20.1777C99.2872 19.9534 99.2651 19.7017 99.3314 19.4226L100.79 13.3551L95.917 9.27792C95.696 9.0853 95.5581 8.86571 95.5033 8.61915C95.4485 8.3726 95.4648 8.13204 95.5524 7.89747C95.6399 7.6629 95.7725 7.47027 95.9502 7.3196C96.1278 7.16893 96.3709 7.07262 96.6795 7.03067L103.111 6.48491L105.597 0.770485C105.707 0.513657 105.879 0.321035 106.111 0.192621C106.344 0.0642069 106.581 0 106.823 0C107.066 0 107.303 0.0642069 107.535 0.192621C107.768 0.321035 107.939 0.513657 108.05 0.770485L110.536 6.48491L116.967 7.03067C117.277 7.07348 117.52 7.16979 117.696 7.3196C117.873 7.46942 118.006 7.66204 118.094 7.89747C118.183 8.13289 118.199 8.37388 118.145 8.62044C118.09 8.86699 117.952 9.08615 117.73 9.27792L112.857 13.3551L114.315 19.4226C114.381 19.7009 114.359 19.9526 114.249 20.1777C114.138 20.4029 113.984 20.5899 113.785 20.7389C113.586 20.8878 113.354 20.9734 113.089 20.9957C112.823 21.018 112.569 20.9538 112.326 20.8031L106.823 17.5927Z" fill="white"/>
<path d="M138.647 17.5927L133.144 20.8031C132.901 20.9529 132.647 21.0171 132.382 20.9957C132.117 20.9743 131.885 20.8887 131.686 20.7389C131.487 20.5891 131.332 20.402 131.222 20.1777C131.111 19.9534 131.089 19.7017 131.155 19.4226L132.614 13.3551L127.741 9.27792C127.52 9.0853 127.382 8.86571 127.327 8.61915C127.272 8.3726 127.289 8.13204 127.376 7.89747C127.464 7.6629 127.596 7.47027 127.774 7.3196C127.952 7.16893 128.195 7.07262 128.503 7.03067L134.934 6.48491L137.421 0.770485C137.531 0.513657 137.703 0.321035 137.935 0.192621C138.168 0.0642069 138.405 0 138.647 0C138.889 0 139.127 0.0642069 139.359 0.192621C139.592 0.321035 139.763 0.513657 139.874 0.770485L142.36 6.48491L148.791 7.03067C149.1 7.07348 149.344 7.16979 149.52 7.3196C149.697 7.46942 149.83 7.66204 149.918 7.89747C150.007 8.13289 150.023 8.37388 149.969 8.62044C149.914 8.86699 149.775 9.08615 149.554 9.27792L144.68 13.3551L146.139 19.4226C146.205 19.7009 146.183 19.9526 146.073 20.1777C145.962 20.4029 145.808 20.5899 145.609 20.7389C145.41 20.8878 145.178 20.9734 144.913 20.9957C144.647 21.018 144.393 20.9538 144.15 20.8031L138.647 17.5927Z" fill="white"/>
</svg>
