<svg width="25" height="25" viewBox="0 0 25 25" fill="none" xmlns="http://www.w3.org/2000/svg">
<path d="M12.5 2.08337C6.75004 2.08337 2.08337 6.75004 2.08337 12.5C2.08337 18.25 6.75004 22.9167 12.5 22.9167C18.25 22.9167 22.9167 18.25 22.9167 12.5C22.9167 6.75004 18.25 2.08337 12.5 2.08337ZM17.3334 9.16671C17.1771 10.8125 16.5 14.8125 16.1563 16.6563C16.0105 17.4375 15.7188 17.698 15.448 17.7292C14.8438 17.7813 14.3855 17.3334 13.8021 16.948C12.8855 16.3438 12.3646 15.9688 11.4792 15.3855C10.448 14.7084 11.1146 14.3334 11.7084 13.7292C11.8646 13.573 14.5313 11.1459 14.5834 10.9271C14.5906 10.894 14.5896 10.8596 14.5806 10.8269C14.5715 10.7942 14.5546 10.7643 14.5313 10.7396C14.4688 10.6875 14.3855 10.7084 14.3125 10.7188C14.2188 10.7396 12.7605 11.7084 9.91671 13.625C9.50004 13.9063 9.12504 14.0521 8.79171 14.0417C8.41671 14.0313 7.70837 13.8334 7.17712 13.6563C6.52087 13.448 6.01046 13.3334 6.05212 12.9688C6.07296 12.7813 6.33337 12.5938 6.82296 12.3959C9.86462 11.073 11.8855 10.198 12.8959 9.78129C15.7917 8.57296 16.3855 8.36462 16.7813 8.36462C16.8646 8.36462 17.0625 8.38546 17.1875 8.48962C17.2917 8.57296 17.323 8.68754 17.3334 8.77087C17.323 8.83337 17.3438 9.02087 17.3334 9.16671Z" fill="white"/>
</svg>
