<svg width="25" height="25" viewBox="0 0 25 25" fill="none" xmlns="http://www.w3.org/2000/svg">
<path d="M15.7011 2.08337H9.31046C3.47087 2.08337 2.08337 3.47192 2.08337 9.299V15.6907C2.08337 21.5282 3.4615 22.9167 9.299 22.9167H15.6907C21.5282 22.9167 22.9167 21.5386 22.9167 15.7011V9.31046C22.9167 3.47087 21.5386 2.08337 15.7011 2.08337ZM18.9021 16.948H17.3823C16.8073 16.948 16.6344 16.4823 15.6032 15.4511C14.7032 14.5834 14.323 14.475 14.0948 14.475C13.7802 14.475 13.6938 14.5615 13.6938 14.9959V16.3625C13.6938 16.7323 13.574 16.949 12.6084 16.949C11.6714 16.8854 10.7629 16.6004 9.95744 16.1174C9.152 15.6345 8.4726 14.9674 7.97504 14.1709C6.79416 12.7027 5.97299 10.9786 5.57712 9.1365C5.57712 8.90837 5.66358 8.70212 6.09796 8.70212H7.61775C8.00837 8.70212 8.149 8.87608 8.30108 9.27712C9.03858 11.448 10.2969 13.3355 10.8073 13.3355C11.0032 13.3355 11.0886 13.249 11.0886 12.7605V10.525C11.024 9.50525 10.4823 9.41879 10.4823 9.05004C10.4893 8.95278 10.5339 8.86205 10.6066 8.7971C10.6793 8.73215 10.7745 8.69808 10.8719 8.70212H13.2594C13.5855 8.70212 13.6938 8.86462 13.6938 9.25525V12.2719C13.6938 12.598 13.8344 12.7063 13.9323 12.7063C14.1282 12.7063 14.2792 12.598 14.6375 12.2396C15.4072 11.301 16.036 10.2553 16.5042 9.13546C16.5524 9.00114 16.643 8.88617 16.7623 8.80798C16.8817 8.72978 17.0233 8.69262 17.1657 8.70212H18.6855C19.1407 8.70212 19.2375 8.93025 19.1407 9.25525C18.5881 10.4932 17.9043 11.6683 17.1011 12.7605C16.9375 13.0105 16.8719 13.1407 17.1011 13.4334C17.2521 13.6615 17.7844 14.1063 18.1427 14.5292C18.6633 15.0488 19.0957 15.6497 19.423 16.3084C19.5532 16.7313 19.3355 16.948 18.9021 16.948Z" fill="white"/>
</svg>
